<svg id="logo_svg__Layer_1" xmlns="http://www.w3.org/2000/svg" viewBox="0 0 1423.15 501.59" class="Header_logo__icon__sSrbB"><defs><style>.logo_svg__cls-6{fill:#242442}</style></defs><path d="M0 358V143.56a36.277 36.277 0 0 1 18.17-31.46L203.85 4.86a36.21 36.21 0 0 1 36.24 0L426.21 112.1a36.335 36.335 0 0 1 17.73 31.46V358a36.335 36.335 0 0 1-17.73 31.46L240.09 496.74a36.258 36.258 0 0 1-36.24 0L18.17 389.94A36.28 36.28 0 0 1 0 358Z" style="fill:#1563ff"></path><path d="M394.39 134.78 242.49 47c-6.49-3.76-14.8-1.55-18.56 4.94a13.541 13.541 0 0 0-1.83 6.89V143l79.24 45.64a28.64 28.64 0 0 1 14.35 24.82v91.19l72.94 42.1c6.5 3.72 14.78 1.47 18.51-5.03 1.17-2.05 1.79-4.36 1.79-6.72V159.51a28.53 28.53 0 0 0-14.54-24.73Z" style="fill:#dce8ff"></path><path d="M128.78 288.11v-91.2l-72.94-42.1c-6.49-3.76-14.8-1.55-18.56 4.94a13.523 13.523 0 0 0-1.83 6.85V342c0 10.25 5.48 19.71 14.36 24.82l151.91 87.74c6.47 3.77 14.77 1.58 18.54-4.9a13.56 13.56 0 0 0 1.84-6.53v-84.2l-79-45.64a28.53 28.53 0 0 1-14.32-25.18Z" style="fill:#508aff"></path><path d="M222.1 234.22V143l-72.94-42.1c-6.46-3.77-14.76-1.59-18.53 4.87-1.22 2.1-1.86 4.49-1.85 6.92v84.19l79 45.64a28.553 28.553 0 0 1 14.35 24.82v91.2L295 400.67c6.47 3.77 14.77 1.59 18.54-4.88 1.22-2.1 1.86-4.48 1.85-6.91v-84.2L236.37 259a28.47 28.47 0 0 1-14.27-24.78Z" style="fill:#96b9ff"></path><path d="m301.34 188.67-79-45.64v91.19a28.433 28.433 0 0 0 14.3 24.78l79.05 45.64v-91.15a28.64 28.64 0 0 0-14.35-24.82Z" style="fill:#eff5ff"></path><path d="m207.75 242.55-79-45.64v91.2a28.52 28.52 0 0 0 14.27 24.81l79 45.65v-91.2c.04-10.23-5.41-19.7-14.27-24.82Z" style="fill:#b0caff"></path><path class="logo_svg__cls-6" d="M657.82 137c14.39 0 25.66 8.15 28.14 22.31h21.61c-3.64-26.29-23.86-41.55-50.1-41.55-30.91 0-54.2 22.54-54.2 60.79s23 60.79 54.2 60.79c28.14 0 46.81-18.2 50.1-40.8l-21.57-.07c-2.71 13.87-14 21.67-28.2 21.67-19.18 0-32.94-14.39-32.94-41.55-.04-26.7 13.6-41.59 32.96-41.59ZM775.44 239.38c31 0 54.38-22.53 54.38-60.79s-23.35-60.79-54.38-60.79-54.38 22.54-54.38 60.79 23.29 60.79 54.38 60.79Zm0-102.34c19.3 0 32.82 14.62 32.82 41.55s-13.52 41.55-32.82 41.55-32.82-14.62-32.82-41.55S756.2 137 775.44 137v.04ZM868.39 157.15h.98l55.76 80.61h19.07V119.42h-21.32v80.67h-1.04l-55.71-80.67h-19.18v118.34h21.44v-80.61zM1053.5 119.42h-94.42v17.97h36.58v100.37h21.26V137.39h36.58v-17.97zM1154.54 157.27c0-22.6-14.56-37.85-41.72-37.85h-44.38v118.34h21.44v-43.34h21.84l23.28 43.34h23.92l-25.6-46.92c13.88-5.6 21.22-17.51 21.22-33.57Zm-44.9 19.36h-19.76v-39.3h19.64c16 0 23.17 7.34 23.17 19.94s-7.16 19.36-23.05 19.36ZM1222.46 117.8c-31.09 0-54.37 22.54-54.37 60.79s23.28 60.79 54.37 60.79 54.38-22.53 54.38-60.79-23.35-60.79-54.38-60.79Zm0 102.34c-19.24 0-32.82-14.62-32.82-41.55s13.58-41.59 32.82-41.59 32.82 14.62 32.82 41.55-13.52 41.59-32.82 41.59ZM1314.34 219.79V119.42h-21.44v118.34h73.56v-17.97h-52.12zM650.65 263.83h-44.38v118.35h21.44v-40h22.66c27.33 0 42-16.41 42-39.18.01-22.58-14.5-39.17-41.72-39.17Zm-3.17 60.73h-19.77v-42.81h19.65c16.07 0 23.17 8.66 23.17 21.26s-7.1 21.55-23.05 21.55ZM729.21 263.83h-21.44v118.35h73.56V364.2h-52.12V263.83zM835.1 263.83l-41.66 118.35h22.88l9.76-29.18h44.5l9.82 29.19h22.89l-41.72-118.36H835.1Zm-3.24 71.94 16-47.67h.92l16 47.67h-32.92ZM991.61 344.5h-1.04l-55.7-80.67h-19.19v118.35h21.44v-80.61h.98l55.76 80.61h19.07V263.83h-21.32v80.67zM1054.45 331.9H1106v-17.97h-51.55V281.8h55.53v-17.97h-76.97v118.35h77.43V364.2h-55.99v-32.3z"></path><text transform="translate(1366.16 145.57)" style="font-family:Inter-Bold,Inter;font-size:36px;font-variation-settings:'wght' 700,'slnt' 0;fill:#242442"><tspan x="0" y="0">TM</tspan></text></svg>
